<svg xmlns="http://www.w3.org/2000/svg" id="Final" viewBox="0 0 1003.65 232"><defs><style>.cls-1{fill:#101a22;}</style></defs><path class="cls-1" d="M287.38,168.21v14.36c0,2.11-1.47,3.58-3.59,3.58h-71.18c-2.08,0-3.37-1.37-3.37-3.58V45.15c0-2.21,1.29-3.59,3.37-3.59h71.18c2.08,0,3.37,1.37,3.37,3.59v14.36c0,2.17-1.32,3.58-3.37,3.58h-50.58v38.38h47.71c2.1,0,3.58,1.47,3.58,3.59v14.56c0,2.05-1.4,3.37-3.58,3.37h-47.71v41.66h50.58c2.11,0,3.59,1.47,3.59,3.58Z"/><path class="cls-1" d="M364.88,82.18c-15.35,0-27.42,6.18-35.03,17.9l-.36-11.88c0-2.19-1.29-3.56-3.37-3.56h-14.98c-2.05,0-3.37,1.4-3.37,3.58V225.59c0,2.18,1.32,3.58,3.37,3.58h16.41c2.06,0,3.38-1.4,3.38-3.58v-53.28c7.66,10.68,19.36,16.32,33.95,16.32,28.34,0,48.91-22.38,48.91-53.22s-20.57-53.22-48.91-53.22Zm-4.31,85.12c-8.65,0-16.09-3.01-21.5-8.72-5.46-5.75-8.35-13.69-8.35-22.99s2.89-17.44,8.35-23.28c5.42-5.78,12.86-8.84,21.5-8.84,18.07,0,30.68,13.12,30.68,31.91s-12.61,31.9-30.68,31.9Z"/><path class="cls-1" d="M844.38,82.18c-15.35,0-27.42,6.18-35.03,17.9l-.36-11.88c0-2.19-1.29-3.56-3.37-3.56h-14.98c-2.05,0-3.37,1.4-3.37,3.58V225.59c0,2.18,1.32,3.58,3.37,3.58h16.41c2.06,0,3.38-1.4,3.38-3.58v-53.28c7.66,10.68,19.36,16.32,33.95,16.32,28.34,0,48.91-22.38,48.91-53.22s-20.57-53.22-48.91-53.22Zm-4.31,85.12c-8.65,0-16.09-3.01-21.5-8.72-5.46-5.75-8.35-13.69-8.35-22.99s2.89-17.44,8.35-23.28c5.42-5.78,12.86-8.84,21.5-8.84,18.07,0,30.68,13.12,30.68,31.91s-12.61,31.9-30.68,31.9Z"/><path class="cls-1" d="M453.44,88.22v94.36c0,2.18-1.32,3.58-3.38,3.58h-16.61c-2.08,0-3.37-1.37-3.37-3.58V88.22c0-2.21,1.29-3.58,3.37-3.58h16.61c2.06,0,3.38,1.4,3.38,3.58Z"/><path class="cls-1" d="M571.64,84.64h-14.76c-2.08,0-3.37,1.37-3.37,3.58l-.35,10.46c-7.25-10.81-19.04-16.5-34.22-16.5-9.82,0-18.99,2.55-26.53,7.4-13.84,8.86-21.77,24.8-21.77,43.77s7.94,34.88,21.77,43.73c7.58,4.87,16.83,7.43,26.73,7.43,14.8,0,26.43-5.54,33.75-16.07v11.88c0,10.12-.97,16.26-7.47,22.43-5.98,5.68-13.36,8.67-23.4,9.22l-24.41,.42c-2.52,.14-3.51,1.6-3.51,3.53l.1,12.54c0,1.95,1.59,3.53,3.53,3.53h26.29c18.03,0,26.53-4.92,36.24-13.49,7.76-6.85,14.98-17.26,14.98-37.57V88.22c0-1.98-1.61-3.58-3.58-3.58Zm-48.61,78.77c-8.37,0-15.94-2.87-21.29-8.06-5.6-5.44-8.56-13.05-8.56-22,0-17.7,12.28-30.06,29.85-30.06s29.24,12.16,29.24,30.27-11.75,29.85-29.24,29.85Z"/><path class="cls-1" d="M652.01,88.84v13.13c0,1.92-1,2.98-2.81,2.98-.5,0-1.08-.08-1.76-.25-2.63-.87-5.03-.99-7.22-.99-7.19,0-12.73,2.54-16.49,7.56-4.1,5.46-4.96,12.35-4.96,17.16v54.15c0,2.21-1.29,3.58-3.37,3.58h-16.41c-2.08,0-3.37-1.37-3.37-3.58V88.22c0-2.21,1.29-3.58,3.37-3.58h15.59c2.27,0,3.37,1.24,3.37,3.76l.49,9.8c4.53-10.62,11.92-16.01,21.98-16.01,5.56,0,8.36,1.47,9.52,2.34,1.52,1.09,2.06,2.22,2.06,4.31Z"/><path class="cls-1" d="M762.28,84.64h-14.97c-2.06,0-3.38,1.4-3.38,3.58l-.35,11.86c-7.61-11.71-19.69-17.9-35.03-17.9-28.35,0-48.92,22.38-48.92,53.22s20.57,53.22,48.92,53.22c15.23,0,27.3-6.12,35.03-17.73l.35,11.69c0,2.16,1.32,3.58,3.38,3.58h14.97c2.06,0,3.38-1.41,3.38-3.58V88.22c0-2.18-1.32-3.58-3.38-3.58Zm-27.93,73.96c-5.41,5.7-12.85,8.72-21.5,8.72-18.06,0-30.67-13.12-30.67-31.9s12.61-31.91,30.67-31.91c8.64,0,16.08,3.06,21.5,8.84,5.46,5.84,8.35,13.88,8.35,23.28s-2.89,17.23-8.35,22.99Z"/><path class="cls-1" d="M1003.65,123.91v58.67c0,2.11-1.47,3.58-3.59,3.58h-16.2c-2.06,0-3.38-1.4-3.38-3.58v-54.57c0-15.67-7.61-24.31-21.44-24.31s-23.5,9.31-23.5,24.31v54.57c0,2.21-1.29,3.58-3.37,3.58h-16.41c-2.08,0-3.37-1.37-3.37-3.58V40.05c0-2.21,1.29-3.58,3.37-3.58h16.41c2.08,0,3.37,1.37,3.37,3.58v58.84c4.95-7.97,14.22-16.7,31.08-16.7,10.87,0,20.08,3.76,26.63,10.86,6.8,7.36,10.39,18.04,10.39,30.87Z"/><path class="cls-1" d="M4.04,0H119.67C121.9,0,123.71,1.81,123.71,4.04V98.9c0,2.23-1.81,4.04-4.04,4.04h-43.58C34.09,102.94,0,68.85,0,26.85V4.04C0,1.81,1.81,0,4.04,0Z"/><path class="cls-1" d="M4.04,121H119.67c2.23,0,4.04,1.81,4.04,4.04v94.86c0,2.23-1.81,4.04-4.04,4.04h-43.58C34.09,223.95,0,189.85,0,147.86v-22.81C0,122.81,1.81,121,4.04,121Z"/><rect class="cls-1" x="429.64" y="42.57" width="24.24" height="24.24" rx="3.73" ry="3.73"/></svg>