<svg width="1004" height="232" viewBox="0 0 1004 232" fill="none" xmlns="http://www.w3.org/2000/svg">
<g clip-path="url(#clip0_8745_3409)">
<path d="M287.38 168.21V182.57C287.38 184.68 285.91 186.15 283.79 186.15H212.61C210.53 186.15 209.24 184.78 209.24 182.57V45.15C209.24 42.94 210.53 41.56 212.61 41.56H283.79C285.87 41.56 287.16 42.93 287.16 45.15V59.51C287.16 61.68 285.84 63.09 283.79 63.09H233.21V101.47H280.92C283.02 101.47 284.5 102.94 284.5 105.06V119.62C284.5 121.67 283.1 122.99 280.92 122.99H233.21V164.65H283.79C285.9 164.65 287.38 166.12 287.38 168.23V168.21Z" fill="white"/>
<path d="M364.88 82.18C349.53 82.18 337.46 88.36 329.85 100.08L329.49 88.2C329.49 86.01 328.2 84.64 326.12 84.64H311.14C309.09 84.64 307.77 86.04 307.77 88.22V225.59C307.77 227.77 309.09 229.17 311.14 229.17H327.55C329.61 229.17 330.93 227.77 330.93 225.59V172.31C338.59 182.99 350.29 188.63 364.88 188.63C393.22 188.63 413.79 166.25 413.79 135.41C413.79 104.57 393.22 82.19 364.88 82.19V82.18ZM360.57 167.3C351.92 167.3 344.48 164.29 339.07 158.58C333.61 152.83 330.72 144.89 330.72 135.59C330.72 126.29 333.61 118.15 339.07 112.31C344.49 106.53 351.93 103.47 360.57 103.47C378.64 103.47 391.25 116.59 391.25 135.38C391.25 154.17 378.64 167.28 360.57 167.28V167.3Z" fill="white"/>
<path d="M844.38 82.18C829.03 82.18 816.959 88.36 809.349 100.08L808.99 88.2C808.99 86.01 807.7 84.64 805.62 84.64H790.64C788.59 84.64 787.27 86.04 787.27 88.22V225.59C787.27 227.77 788.59 229.17 790.64 229.17H807.049C809.109 229.17 810.43 227.77 810.43 225.59V172.31C818.09 182.99 829.79 188.63 844.38 188.63C872.72 188.63 893.289 166.25 893.289 135.41C893.289 104.57 872.72 82.19 844.38 82.19V82.18ZM840.07 167.3C831.42 167.3 823.98 164.29 818.57 158.58C813.11 152.83 810.219 144.89 810.219 135.59C810.219 126.29 813.11 118.15 818.57 112.31C823.99 106.53 831.43 103.47 840.07 103.47C858.14 103.47 870.75 116.59 870.75 135.38C870.75 154.17 858.14 167.28 840.07 167.28V167.3Z" fill="white"/>
<path d="M453.44 88.22V182.58C453.44 184.76 452.12 186.16 450.06 186.16H433.45C431.37 186.16 430.08 184.79 430.08 182.58V88.22C430.08 86.01 431.37 84.64 433.45 84.64H450.06C452.12 84.64 453.44 86.04 453.44 88.22Z" fill="white"/>
<path d="M571.641 84.64H556.881C554.801 84.64 553.511 86.01 553.511 88.22L553.161 98.68C545.911 87.87 534.121 82.18 518.941 82.18C509.121 82.18 499.951 84.73 492.411 89.58C478.571 98.44 470.641 114.38 470.641 133.35C470.641 152.32 478.581 168.23 492.411 177.08C499.991 181.95 509.241 184.51 519.141 184.51C533.941 184.51 545.571 178.97 552.891 168.44V180.32C552.891 190.44 551.921 196.58 545.421 202.75C539.441 208.43 532.061 211.42 522.021 211.97L497.611 212.39C495.091 212.53 494.101 213.99 494.101 215.92L494.201 228.46C494.201 230.41 495.791 231.99 497.731 231.99H524.021C542.051 231.99 550.551 227.07 560.261 218.5C568.021 211.65 575.241 201.24 575.241 180.93V88.22C575.241 86.24 573.631 84.64 571.661 84.64H571.641ZM523.031 163.41C514.661 163.41 507.091 160.54 501.741 155.35C496.141 149.91 493.181 142.3 493.181 133.35C493.181 115.65 505.461 103.29 523.031 103.29C540.601 103.29 552.271 115.45 552.271 133.56C552.271 151.67 540.521 163.41 523.031 163.41Z" fill="white"/>
<path d="M652.009 88.84V101.97C652.009 103.89 651.009 104.95 649.199 104.95C648.699 104.95 648.119 104.87 647.439 104.7C644.809 103.83 642.409 103.71 640.219 103.71C633.029 103.71 627.489 106.25 623.729 111.27C619.629 116.73 618.769 123.62 618.769 128.43V182.58C618.769 184.79 617.479 186.16 615.399 186.16H598.989C596.909 186.16 595.619 184.79 595.619 182.58V88.22C595.619 86.01 596.909 84.64 598.989 84.64H614.579C616.849 84.64 617.949 85.88 617.949 88.4L618.439 98.2C622.969 87.58 630.359 82.19 640.419 82.19C645.979 82.19 648.779 83.66 649.939 84.53C651.459 85.62 651.999 86.75 651.999 88.84H652.009Z" fill="white"/>
<path d="M762.281 84.64H747.311C745.251 84.64 743.931 86.04 743.931 88.22L743.581 100.08C735.971 88.37 723.891 82.18 708.551 82.18C680.201 82.18 659.631 104.56 659.631 135.4C659.631 166.24 680.201 188.62 708.551 188.62C723.781 188.62 735.851 182.5 743.581 170.89L743.931 182.58C743.931 184.74 745.251 186.16 747.311 186.16H762.281C764.341 186.16 765.661 184.75 765.661 182.58V88.22C765.661 86.04 764.341 84.64 762.281 84.64ZM734.351 158.6C728.941 164.3 721.501 167.32 712.851 167.32C694.791 167.32 682.181 154.2 682.181 135.42C682.181 116.64 694.791 103.51 712.851 103.51C721.491 103.51 728.931 106.57 734.351 112.35C739.811 118.19 742.701 126.23 742.701 135.63C742.701 145.03 739.811 152.86 734.351 158.62V158.6Z" fill="white"/>
<path d="M1003.65 123.91V182.58C1003.65 184.69 1002.18 186.16 1000.06 186.16H983.861C981.801 186.16 980.481 184.76 980.481 182.58V128.01C980.481 112.34 972.871 103.7 959.041 103.7C945.211 103.7 935.541 113.01 935.541 128.01V182.58C935.541 184.79 934.251 186.16 932.171 186.16H915.761C913.681 186.16 912.391 184.79 912.391 182.58V40.05C912.391 37.84 913.681 36.47 915.761 36.47H932.171C934.251 36.47 935.541 37.84 935.541 40.05V98.89C940.491 90.92 949.761 82.19 966.621 82.19C977.491 82.19 986.701 85.95 993.251 93.05C1000.05 100.41 1003.64 111.09 1003.64 123.92L1003.65 123.91Z" fill="white"/>
<path d="M4.04 0H119.67C121.9 0 123.71 1.81 123.71 4.04V98.9C123.71 101.13 121.9 102.94 119.67 102.94H76.09C34.09 102.94 0 68.85 0 26.85V4.04C0 1.81 1.81 0 4.04 0Z" fill="white"/>
<path d="M4.04 121H119.67C121.9 121 123.71 122.81 123.71 125.04V219.9C123.71 222.13 121.9 223.94 119.67 223.94H76.09C34.09 223.95 0 189.85 0 147.86V125.05C0 122.81 1.81 121 4.04 121Z" fill="white"/>
<path d="M450.151 42.57H433.371C431.311 42.57 429.641 44.24 429.641 46.3V63.08C429.641 65.14 431.311 66.81 433.371 66.81H450.151C452.211 66.81 453.881 65.14 453.881 63.08V46.3C453.881 44.24 452.211 42.57 450.151 42.57Z" fill="white"/>
</g>
<defs>
<clipPath id="clip0_8745_3409">
<rect width="1003.65" height="232" fill="white"/>
</clipPath>
</defs>
</svg>
